<svg width="100%" viewBox="0 0 680 383" role="img" xmlns="http://www.w3.org/2000/svg">
<title>Обложка: после эфира работа переходит в задачи на доске</title>
<desc>Слева экран онлайн-встречи, из него дугой выходят карточки-задачи и собираются в доску справа. Единственный акцент — фиолетовый.</desc>
<rect width="680" height="383" fill="#ffffff"/>
<rect x="436" y="78" width="196" height="250" rx="16" fill="#fafafa" stroke="#eeeeee" stroke-width="1"/>
<rect x="64" y="132" width="200" height="132" rx="16" fill="#f5f5f5" stroke="#e0e0e0" stroke-width="1.5"/>
<rect x="82" y="150" width="164" height="74" rx="8" fill="#ffffff" stroke="#eeeeee" stroke-width="1"/>
<circle cx="164" cy="187" r="18" fill="#f0f0f0"/>
<rect x="134" y="232" width="60" height="20" rx="10" fill="#7d4ccf"/>
<path d="M264 198 C 340 150 392 150 452 152" fill="none" stroke="#7d4ccf" stroke-width="2" stroke-linecap="round"/>
<g>
<rect x="360" y="120" width="78" height="30" rx="9" fill="#ffffff" stroke="#e0e0e0" stroke-width="1.5"/>
<circle cx="376" cy="135" r="5" fill="#7d4ccf"/>
<rect x="390" y="132" width="36" height="6" rx="3" fill="#eeeeee"/>
</g>
<g>
<rect x="452" y="96" width="164" height="48" rx="12" fill="#ffffff" stroke="#e0e0e0" stroke-width="1.5"/>
<circle cx="470" cy="120" r="6" fill="#7d4ccf"/>
<rect x="486" y="111" width="96" height="6" rx="3" fill="#eeeeee"/>
<rect x="486" y="123" width="60" height="6" rx="3" fill="#f0f0f0"/>
</g>
<g>
<rect x="452" y="152" width="164" height="48" rx="12" fill="#ffffff" stroke="#e0e0e0" stroke-width="1.5"/>
<circle cx="470" cy="176" r="6" fill="#7d4ccf"/>
<rect x="486" y="167" width="96" height="6" rx="3" fill="#eeeeee"/>
<rect x="486" y="179" width="60" height="6" rx="3" fill="#f0f0f0"/>
</g>
<g>
<rect x="452" y="208" width="164" height="48" rx="12" fill="#ffffff" stroke="#e0e0e0" stroke-width="1.5"/>
<circle cx="470" cy="232" r="6" fill="#7d4ccf"/>
<rect x="486" y="223" width="96" height="6" rx="3" fill="#eeeeee"/>
<rect x="486" y="235" width="60" height="6" rx="3" fill="#f0f0f0"/>
</g>
<g>
<rect x="452" y="264" width="164" height="48" rx="12" fill="#ffffff" stroke="#e0e0e0" stroke-width="1.5"/>
<circle cx="470" cy="288" r="6" fill="#7d4ccf"/>
<rect x="486" y="279" width="96" height="6" rx="3" fill="#eeeeee"/>
<rect x="486" y="291" width="60" height="6" rx="3" fill="#f0f0f0"/>
</g>
</svg>
