<svg width="100%" viewBox="0 0 680 383" role="img" xmlns="http://www.w3.org/2000/svg">
<title>Доска Kaiten: работа после вебинара разложена по колонкам</title>
<desc>UI-мокап канбан-доски с сайдбаром и колонками После эфира, В работе, Follow-up, Готово; карточки запись, материалы, лиды, follow-up, задачи; одна карточка перетаскивается.</desc>
<defs><linearGradient id="bgA" x1="0" y1="0" x2="1" y2="1"><stop offset="0" stop-color="#efe9f9"/><stop offset="1" stop-color="#e4f2fd"/></linearGradient></defs>
<rect width="680" height="383" fill="url(#bgA)"/>
<rect x="34" y="32" width="612" height="329" rx="18" fill="#d9d5ea" opacity="0.5"/>
<rect x="34" y="26" width="612" height="329" rx="18" fill="#ffffff" stroke="#e6e3f0" stroke-width="1"/>
<rect x="34" y="26" width="150" height="329" rx="18" fill="#fafafa"/>
<rect x="176" y="26" width="8" height="329" fill="#fafafa"/>
<rect x="46" y="42" width="126" height="20" rx="6" fill="#ffffff" stroke="#eeeeee"/>
<circle cx="56" cy="52" r="3" fill="#bdbdbd"/>
<g font-family="Inter,system-ui,sans-serif">
<rect x="44" y="80" width="132" height="18" rx="6" fill="#efe9f9"/>
<rect x="54" y="86" width="8" height="8" rx="2" fill="#7d4ccf"/><rect x="68" y="86" width="86" height="6" rx="3" fill="#c3a9ea"/>
<rect x="54" y="110" width="8" height="8" rx="2" fill="#bdbdbd"/><rect x="68" y="110" width="70" height="6" rx="3" fill="#e0e0e0"/>
<rect x="54" y="132" width="8" height="8" rx="2" fill="#bdbdbd"/><rect x="68" y="132" width="90" height="6" rx="3" fill="#e0e0e0"/>
<rect x="54" y="154" width="8" height="8" rx="2" fill="#bdbdbd"/><rect x="68" y="154" width="60" height="6" rx="3" fill="#e0e0e0"/>
<rect x="54" y="176" width="8" height="8" rx="2" fill="#bdbdbd"/><rect x="68" y="176" width="80" height="6" rx="3" fill="#e0e0e0"/>
<rect x="54" y="198" width="8" height="8" rx="2" fill="#bdbdbd"/><rect x="68" y="198" width="66" height="6" rx="3" fill="#e0e0e0"/>
<rect x="54" y="220" width="8" height="8" rx="2" fill="#bdbdbd"/><rect x="68" y="220" width="88" height="6" rx="3" fill="#e0e0e0"/>
<text x="200" y="52" font-size="12" font-weight="600" fill="#2d2d2d">Работа после вебинара</text>
<text x="200" y="82" font-size="11" font-weight="600" fill="#616161">После эфира</text>
<text x="310" y="82" font-size="11" font-weight="600" fill="#616161">В работе</text>
<text x="420" y="82" font-size="11" font-weight="600" fill="#616161">Follow-up</text>
<text x="530" y="82" font-size="11" font-weight="600" fill="#616161">Готово</text>
<g>
<rect x="198" y="94" width="96" height="46" rx="10" fill="#ffffff" stroke="#eeeeee"/>
<rect x="206" y="102" width="42" height="14" rx="7" fill="#efe9f9"/><text x="211" y="112" font-size="10" fill="#7d4ccf">Запись</text>
<rect x="206" y="124" width="60" height="5" rx="2" fill="#eeeeee"/><circle cx="281" cy="127" r="5" fill="#c3a9ea"/>
</g>
<g>
<rect x="198" y="150" width="96" height="46" rx="10" fill="#ffffff" stroke="#eeeeee"/>
<rect x="206" y="158" width="66" height="14" rx="7" fill="#e4f2fd"/><text x="211" y="168" font-size="10" fill="#2196f3">Материалы</text>
<rect x="206" y="180" width="52" height="5" rx="2" fill="#eeeeee"/><circle cx="281" cy="183" r="5" fill="#9ecbf5"/>
</g>
<g>
<rect x="308" y="94" width="96" height="46" rx="10" fill="#ffffff" stroke="#eeeeee"/>
<rect x="316" y="102" width="40" height="14" rx="7" fill="#fff3e0"/><text x="321" y="112" font-size="10" fill="#e08600">Лиды</text>
<rect x="316" y="124" width="64" height="5" rx="2" fill="#eeeeee"/><circle cx="391" cy="127" r="5" fill="#f2c17a"/>
</g>
<rect x="308" y="150" width="96" height="46" rx="10" fill="none" stroke="#cdbde8" stroke-width="1.5" stroke-dasharray="5 5"/>
<g>
<rect x="418" y="94" width="96" height="46" rx="10" fill="#ffffff" stroke="#eeeeee"/>
<rect x="426" y="102" width="66" height="14" rx="7" fill="#fde8e6"/><text x="431" y="112" font-size="10" fill="#e23b2e">Follow-up</text>
<rect x="426" y="124" width="58" height="5" rx="2" fill="#eeeeee"/><circle cx="501" cy="127" r="5" fill="#f19a92"/>
</g>
<g>
<rect x="528" y="94" width="96" height="46" rx="10" fill="#ffffff" stroke="#eeeeee"/>
<rect x="536" y="102" width="70" height="14" rx="7" fill="#e9f5ea"/><text x="541" y="112" font-size="10" fill="#3a9540">Публикация</text>
<rect x="536" y="124" width="50" height="5" rx="2" fill="#eeeeee"/><circle cx="611" cy="127" r="5" fill="#a3d6a6"/>
</g>
<g>
<rect x="528" y="150" width="96" height="46" rx="10" fill="#ffffff" stroke="#eeeeee"/>
<rect x="536" y="158" width="52" height="14" rx="7" fill="#efe9f9"/><text x="541" y="168" font-size="10" fill="#7d4ccf">Знания</text>
<rect x="536" y="180" width="60" height="5" rx="2" fill="#eeeeee"/><circle cx="611" cy="183" r="5" fill="#c3a9ea"/>
</g>
<g transform="rotate(-4 372 216)">
<rect x="326" y="176" width="104" height="52" rx="12" fill="#e8e0f6" opacity="0.7"/>
<rect x="324" y="172" width="104" height="52" rx="12" fill="#ffffff" stroke="#c3a9ea" stroke-width="1.5"/>
<rect x="334" y="182" width="46" height="15" rx="7" fill="#efe9f9"/><text x="339" y="193" font-size="10" fill="#7d4ccf">Задачи</text>
<rect x="334" y="205" width="70" height="5" rx="2" fill="#eeeeee"/>
<rect x="334" y="214" width="48" height="5" rx="2" fill="#f0f0f0"/>
<circle cx="414" cy="211" r="6" fill="#7d4ccf"/>
</g>
</g>
</svg>
