<svg width="100%" viewBox="0 0 680 383" role="img" xmlns="http://www.w3.org/2000/svg">
<title>Доска Kaiten после вебинара — три колонки с крупными карточками</title>
<desc>UI-мокап канбан-доски: колонки После эфира, В работе, Готово; карточки с тегами и датами; одна карточка follow-up перетаскивается в центр.</desc>
<defs><linearGradient id="bgB" x1="0" y1="0" x2="1" y2="1"><stop offset="0" stop-color="#eee7f8"/><stop offset="1" stop-color="#e6f0fb"/></linearGradient></defs>
<rect width="680" height="383" fill="url(#bgB)"/>
<rect x="34" y="32" width="612" height="329" rx="18" fill="#d9d5ea" opacity="0.5"/>
<rect x="34" y="26" width="612" height="329" rx="18" fill="#ffffff" stroke="#e6e3f0" stroke-width="1"/>
<rect x="34" y="26" width="150" height="329" rx="18" fill="#fafafa"/>
<rect x="176" y="26" width="8" height="329" fill="#fafafa"/>
<rect x="46" y="42" width="126" height="20" rx="6" fill="#ffffff" stroke="#eeeeee"/><circle cx="56" cy="52" r="3" fill="#bdbdbd"/>
<g font-family="Inter,system-ui,sans-serif">
<rect x="44" y="82" width="132" height="18" rx="6" fill="#efe9f9"/>
<rect x="54" y="88" width="8" height="8" rx="2" fill="#7d4ccf"/><rect x="68" y="88" width="86" height="6" rx="3" fill="#c3a9ea"/>
<rect x="54" y="112" width="8" height="8" rx="2" fill="#bdbdbd"/><rect x="68" y="112" width="72" height="6" rx="3" fill="#e0e0e0"/>
<rect x="54" y="134" width="8" height="8" rx="2" fill="#bdbdbd"/><rect x="68" y="134" width="88" height="6" rx="3" fill="#e0e0e0"/>
<rect x="54" y="156" width="8" height="8" rx="2" fill="#bdbdbd"/><rect x="68" y="156" width="60" height="6" rx="3" fill="#e0e0e0"/>
<rect x="54" y="178" width="8" height="8" rx="2" fill="#bdbdbd"/><rect x="68" y="178" width="82" height="6" rx="3" fill="#e0e0e0"/>
<rect x="54" y="200" width="8" height="8" rx="2" fill="#bdbdbd"/><rect x="68" y="200" width="68" height="6" rx="3" fill="#e0e0e0"/>
<text x="200" y="52" font-size="12" font-weight="600" fill="#2d2d2d">Работа после вебинара</text>
<text x="202" y="84" font-size="11" font-weight="600" fill="#616161">После эфира</text>
<text x="348" y="84" font-size="11" font-weight="600" fill="#616161">В работе</text>
<text x="494" y="84" font-size="11" font-weight="600" fill="#616161">Готово</text>
<g>
<rect x="200" y="96" width="128" height="58" rx="12" fill="#ffffff" stroke="#eeeeee"/>
<rect x="210" y="106" width="46" height="15" rx="7" fill="#efe9f9"/><text x="215" y="117" font-size="10" fill="#7d4ccf">Запись</text>
<rect x="210" y="129" width="88" height="5" rx="2" fill="#eeeeee"/><rect x="210" y="139" width="60" height="5" rx="2" fill="#f0f0f0"/>
<circle cx="216" cy="146" r="0" fill="none"/><rect x="284" y="106" width="34" height="13" rx="6" fill="#f5f5f5"/>
</g>
<g>
<rect x="200" y="164" width="128" height="58" rx="12" fill="#ffffff" stroke="#eeeeee"/>
<rect x="210" y="174" width="70" height="15" rx="7" fill="#e4f2fd"/><text x="215" y="185" font-size="10" fill="#2196f3">Материалы</text>
<rect x="210" y="197" width="80" height="5" rx="2" fill="#eeeeee"/><rect x="210" y="207" width="52" height="5" rx="2" fill="#f0f0f0"/>
<circle cx="312" cy="210" r="6" fill="#9ecbf5"/>
</g>
<g>
<rect x="346" y="96" width="128" height="58" rx="12" fill="#ffffff" stroke="#eeeeee"/>
<rect x="356" y="106" width="42" height="15" rx="7" fill="#fff3e0"/><text x="361" y="117" font-size="10" fill="#e08600">Лиды</text>
<rect x="356" y="129" width="86" height="5" rx="2" fill="#eeeeee"/><rect x="356" y="139" width="56" height="5" rx="2" fill="#f0f0f0"/>
<circle cx="458" cy="146" r="6" fill="#f2c17a"/>
</g>
<rect x="346" y="164" width="128" height="58" rx="12" fill="none" stroke="#cdbde8" stroke-width="1.5" stroke-dasharray="5 5"/>
<g>
<rect x="492" y="96" width="128" height="58" rx="12" fill="#ffffff" stroke="#eeeeee"/>
<rect x="502" y="106" width="72" height="15" rx="7" fill="#e9f5ea"/><text x="507" y="117" font-size="10" fill="#3a9540">Публикация</text>
<rect x="502" y="129" width="78" height="5" rx="2" fill="#eeeeee"/><rect x="502" y="139" width="50" height="5" rx="2" fill="#f0f0f0"/>
<circle cx="604" cy="146" r="6" fill="#a3d6a6"/>
</g>
<g>
<rect x="492" y="164" width="128" height="58" rx="12" fill="#ffffff" stroke="#eeeeee"/>
<rect x="502" y="174" width="54" height="15" rx="7" fill="#efe9f9"/><text x="507" y="185" font-size="10" fill="#7d4ccf">Знания</text>
<rect x="502" y="197" width="84" height="5" rx="2" fill="#eeeeee"/><rect x="502" y="207" width="58" height="5" rx="2" fill="#f0f0f0"/>
<circle cx="604" cy="210" r="6" fill="#c3a9ea"/>
</g>
<g transform="rotate(-5 405 200)">
<rect x="348" y="172" width="118" height="60" rx="14" fill="#e8e0f6" opacity="0.7"/>
<rect x="346" y="166" width="118" height="60" rx="14" fill="#ffffff" stroke="#c3a9ea" stroke-width="1.5"/>
<rect x="358" y="178" width="66" height="16" rx="8" fill="#efe9f9"/><text x="363" y="190" font-size="10" fill="#7d4ccf">Follow-up</text>
<rect x="358" y="202" width="84" height="5" rx="2" fill="#eeeeee"/>
<rect x="358" y="212" width="54" height="5" rx="2" fill="#f0f0f0"/>
<circle cx="450" cy="209" r="7" fill="#7d4ccf"/>
</g>
</g>
</svg>
