<svg width="100%" viewBox="0 0 680 383" role="img" xmlns="http://www.w3.org/2000/svg">
<title>Доска Kaiten: карточка после вебинара переносится в колонку Готово</title>
<desc>UI-мокап канбан-доски, воздушная сетка из четырёх колонок; фиолетовая карточка задачи перетаскивается в колонку Готово, где показан пунктирный слот-цель.</desc>
<defs><linearGradient id="bgC" x1="0" y1="0" x2="1" y2="1"><stop offset="0" stop-color="#f0eafa"/><stop offset="1" stop-color="#e6f1fb"/></linearGradient></defs>
<rect width="680" height="383" fill="url(#bgC)"/>
<rect x="34" y="32" width="612" height="329" rx="18" fill="#d9d5ea" opacity="0.5"/>
<rect x="34" y="26" width="612" height="329" rx="18" fill="#ffffff" stroke="#e6e3f0" stroke-width="1"/>
<rect x="34" y="26" width="150" height="329" rx="18" fill="#fafafa"/>
<rect x="176" y="26" width="8" height="329" fill="#fafafa"/>
<rect x="46" y="42" width="126" height="20" rx="6" fill="#ffffff" stroke="#eeeeee"/><circle cx="56" cy="52" r="3" fill="#bdbdbd"/>
<g font-family="Inter,system-ui,sans-serif">
<rect x="44" y="84" width="132" height="18" rx="6" fill="#efe9f9"/>
<rect x="54" y="90" width="8" height="8" rx="2" fill="#7d4ccf"/><rect x="68" y="90" width="86" height="6" rx="3" fill="#c3a9ea"/>
<rect x="54" y="116" width="8" height="8" rx="2" fill="#bdbdbd"/><rect x="68" y="116" width="74" height="6" rx="3" fill="#e0e0e0"/>
<rect x="54" y="140" width="8" height="8" rx="2" fill="#bdbdbd"/><rect x="68" y="140" width="90" height="6" rx="3" fill="#e0e0e0"/>
<rect x="54" y="164" width="8" height="8" rx="2" fill="#bdbdbd"/><rect x="68" y="164" width="62" height="6" rx="3" fill="#e0e0e0"/>
<rect x="54" y="188" width="8" height="8" rx="2" fill="#bdbdbd"/><rect x="68" y="188" width="84" height="6" rx="3" fill="#e0e0e0"/>
<text x="200" y="52" font-size="12" font-weight="600" fill="#2d2d2d">Работа после вебинара</text>
<text x="200" y="84" font-size="11" font-weight="600" fill="#616161">После эфира</text>
<text x="310" y="84" font-size="11" font-weight="600" fill="#616161">В работе</text>
<text x="420" y="84" font-size="11" font-weight="600" fill="#616161">Follow-up</text>
<text x="530" y="84" font-size="11" font-weight="600" fill="#616161">Готово</text>
<g>
<rect x="198" y="98" width="96" height="50" rx="10" fill="#ffffff" stroke="#eeeeee"/>
<rect x="206" y="107" width="42" height="14" rx="7" fill="#efe9f9"/><text x="211" y="117" font-size="10" fill="#7d4ccf">Запись</text>
<rect x="206" y="129" width="60" height="5" rx="2" fill="#eeeeee"/><rect x="206" y="138" width="40" height="5" rx="2" fill="#f0f0f0"/>
</g>
<g>
<rect x="308" y="98" width="96" height="50" rx="10" fill="#ffffff" stroke="#eeeeee"/>
<rect x="316" y="107" width="66" height="14" rx="7" fill="#e4f2fd"/><text x="321" y="117" font-size="10" fill="#2196f3">Материалы</text>
<rect x="316" y="129" width="58" height="5" rx="2" fill="#eeeeee"/><rect x="316" y="138" width="38" height="5" rx="2" fill="#f0f0f0"/>
</g>
<g>
<rect x="418" y="98" width="96" height="50" rx="10" fill="#ffffff" stroke="#eeeeee"/>
<rect x="426" y="107" width="40" height="14" rx="7" fill="#fff3e0"/><text x="431" y="117" font-size="10" fill="#e08600">Лиды</text>
<rect x="426" y="129" width="62" height="5" rx="2" fill="#eeeeee"/><rect x="426" y="138" width="44" height="5" rx="2" fill="#f0f0f0"/>
</g>
<g>
<rect x="528" y="98" width="96" height="50" rx="10" fill="#ffffff" stroke="#eeeeee"/>
<rect x="536" y="107" width="70" height="14" rx="7" fill="#e9f5ea"/><text x="541" y="117" font-size="10" fill="#3a9540">Публикация</text>
<rect x="536" y="129" width="52" height="5" rx="2" fill="#eeeeee"/><rect x="536" y="138" width="40" height="5" rx="2" fill="#f0f0f0"/>
</g>
<path d="M470 200 C 505 214 512 190 545 176" fill="none" stroke="#c3a9ea" stroke-width="1.5" stroke-dasharray="5 5" stroke-linecap="round"/>
<rect x="528" y="160" width="96" height="52" rx="10" fill="none" stroke="#cdbde8" stroke-width="1.5" stroke-dasharray="5 5"/>
<g transform="rotate(-5 424 196)">
<rect x="374" y="174" width="104" height="52" rx="12" fill="#e2d6f2" opacity="0.75"/>
<rect x="372" y="169" width="104" height="52" rx="12" fill="#ffffff" stroke="#7d4ccf" stroke-width="1.5"/>
<rect x="382" y="179" width="46" height="15" rx="7" fill="#efe9f9"/><text x="387" y="190" font-size="10" fill="#7d4ccf">Задачи</text>
<rect x="382" y="202" width="72" height="5" rx="2" fill="#eeeeee"/>
<rect x="382" y="211" width="48" height="5" rx="2" fill="#f0f0f0"/>
<circle cx="460" cy="208" r="6" fill="#7d4ccf"/>
</g>
</g>
</svg>
