<svg width="100%" viewBox="0 0 680 383" role="img" xmlns="http://www.w3.org/2000/svg">
<title>После эфира материалы, вопросы и лиды разлетаются и теряются</title>
<desc>В центре экран завершённой встречи, от него в стороны разлетаются лист-запись, конверт, чат-облако и карточка контакта. Единственный акцент — фиолетовый на экране.</desc>
<rect width="680" height="383" fill="#ffffff"/>
<path d="M300 168 L188 122" fill="none" stroke="#e0e0e0" stroke-width="1" stroke-dasharray="4 5"/>
<path d="M390 168 L512 120" fill="none" stroke="#e0e0e0" stroke-width="1" stroke-dasharray="4 5"/>
<path d="M300 216 L190 278" fill="none" stroke="#e0e0e0" stroke-width="1" stroke-dasharray="4 5"/>
<path d="M390 216 L512 280" fill="none" stroke="#e0e0e0" stroke-width="1" stroke-dasharray="4 5"/>
<rect x="290" y="150" width="110" height="84" rx="16" fill="#f5f5f5" stroke="#e0e0e0" stroke-width="1.5"/>
<rect x="302" y="162" width="86" height="44" rx="6" fill="#ffffff" stroke="#eeeeee" stroke-width="1"/>
<rect x="320" y="212" width="50" height="14" rx="7" fill="#7d4ccf"/>
<g transform="rotate(-8 154 124)" opacity="0.9">
<rect x="118" y="78" width="72" height="92" rx="8" fill="#ffffff" stroke="#e0e0e0" stroke-width="1.5"/>
<rect x="132" y="98" width="44" height="6" rx="3" fill="#eeeeee"/>
<rect x="132" y="114" width="44" height="6" rx="3" fill="#eeeeee"/>
<rect x="132" y="130" width="28" height="6" rx="3" fill="#f0f0f0"/>
</g>
<g transform="rotate(8 560 118)" opacity="0.9">
<rect x="512" y="86" width="96" height="64" rx="8" fill="#ffffff" stroke="#e0e0e0" stroke-width="1.5"/>
<path d="M512 92 L560 124 L608 92" fill="none" stroke="#e0e0e0" stroke-width="1.5" stroke-linejoin="round"/>
</g>
<g transform="rotate(6 158 286)" opacity="0.9">
<rect x="112" y="250" width="92" height="56" rx="16" fill="#ffffff" stroke="#e0e0e0" stroke-width="1.5"/>
<path d="M134 304 L128 320 L152 305" fill="#ffffff" stroke="#e0e0e0" stroke-width="1.5" stroke-linejoin="round"/>
<rect x="128" y="266" width="60" height="6" rx="3" fill="#eeeeee"/>
<rect x="128" y="282" width="40" height="6" rx="3" fill="#f0f0f0"/>
</g>
<g transform="rotate(-6 562 282)" opacity="0.9">
<rect x="512" y="250" width="100" height="64" rx="10" fill="#ffffff" stroke="#e0e0e0" stroke-width="1.5"/>
<circle cx="536" cy="282" r="13" fill="#eeeeee"/>
<rect x="558" y="273" width="44" height="6" rx="3" fill="#eeeeee"/>
<rect x="558" y="287" width="30" height="6" rx="3" fill="#f0f0f0"/>
</g>
</svg>
